<?xml version="1.0" encoding="UTF-8" standalone="no"?>
<!-- Created with Inkscape (http://www.inkscape.org/) -->

<svg
   xmlns:dc="http://purl.org/dc/elements/1.1/"
   xmlns:cc="http://creativecommons.org/ns#"
   xmlns:rdf="http://www.w3.org/1999/02/22-rdf-syntax-ns#"
   xmlns:svg="http://www.w3.org/2000/svg"
   xmlns="http://www.w3.org/2000/svg"
   xmlns:sodipodi="http://sodipodi.sourceforge.net/DTD/sodipodi-0.dtd"
   xmlns:inkscape="http://www.inkscape.org/namespaces/inkscape"
   width="210mm"
   height="297mm"
   viewBox="0 0 210 297"
   version="1.1"
   id="svg8"
   inkscape:version="0.92.3 (2405546, 2018-03-11)"
   sodipodi:docname="CO_logo.svg">
  <defs
     id="defs2" />
  <sodipodi:namedview
     id="base"
     pagecolor="#ffffff"
     bordercolor="#666666"
     borderopacity="1.0"
     inkscape:pageopacity="0.0"
     inkscape:pageshadow="2"
     inkscape:zoom="0.7"
     inkscape:cx="625.02819"
     inkscape:cy="683.99222"
     inkscape:document-units="mm"
     inkscape:current-layer="layer1"
     showgrid="false"
     inkscape:window-width="1853"
     inkscape:window-height="1025"
     inkscape:window-x="67"
     inkscape:window-y="27"
     inkscape:window-maximized="1"
     inkscape:snap-grids="false"
     inkscape:snap-to-guides="false">
    <inkscape:grid
       type="xygrid"
       id="grid896" />
  </sodipodi:namedview>
  <metadata
     id="metadata5">
    <rdf:RDF>
      <cc:Work
         rdf:about="">
        <dc:format>image/svg+xml</dc:format>
        <dc:type
           rdf:resource="http://purl.org/dc/dcmitype/StillImage" />
        <dc:title />
      </cc:Work>
    </rdf:RDF>
  </metadata>
  <g
     inkscape:label="Layer 1"
     inkscape:groupmode="layer"
     id="layer1">
    <circle
       style="opacity:1;fill:#165ca0;fill-opacity:1;stroke:none;stroke-width:0.80000001;stroke-linecap:butt;stroke-miterlimit:4;stroke-dasharray:none;stroke-dashoffset:0;stroke-opacity:0.50196078"
       id="path861"
       cx="103.86745"
       cy="153.41545"
       r="60"
       inkscape:export-xdpi="300"
       inkscape:export-ydpi="300" />
    <path
       style="fill:#81c4ff;fill-opacity:1;stroke:none;stroke-width:0.26458332px;stroke-linecap:butt;stroke-linejoin:miter;stroke-opacity:1"
       d="m 61.650414,111.54662 13.112895,5.8855 8.693454,-0.75596 3.023809,1.32292 -3.401785,2.07887 -4.724704,7.9375 9.449406,-5.29166 6.047618,5.85862 -17.197916,10.96131 -13.85379,11.61443 6.294265,3.50462 -9.827379,-1.5119 9.827379,1.5119 11.830272,-4.34902 2.721812,8.31777 16.252979,10.39435 -6.236609,14.36309 -8.693454,11.33929 -4.041466,5.05289 -3.518058,-13.36837 0.755954,-9.63839 -9.07143,-10.58333 3.212799,-5.85864 -13.040178,-7.18154 -11.144733,-6.00176 0.05928,-15.92317 c 1.906569,-5.04577 4.343545,-10.44428 11.886805,-18.82887 z"
       id="path874"
       inkscape:connector-curvature="0"
       sodipodi:nodetypes="cccccccccccccccccccccccccccc"
       inkscape:export-xdpi="300"
       inkscape:export-ydpi="300" />
    <path
       style="fill:#65d545;fill-opacity:1;stroke:none;stroke-width:0.26458332px;stroke-linecap:butt;stroke-linejoin:miter;stroke-opacity:1"
       d="m 105.94634,110.96873 -10.205353,0.75595 -4.535715,2.45685 6.614582,1.13393 -0.37797,7.74851 9.260406,-4.15774 8.50448,-3.96875 2.07887,-3.96875 -2.83483,-1.7009 z"
       id="path876"
       inkscape:connector-curvature="0"
       inkscape:export-xdpi="300"
       inkscape:export-ydpi="300" />
    <path
       style="fill:#81c4ff;fill-opacity:1;stroke:none;stroke-width:0.26458332px;stroke-linecap:butt;stroke-linejoin:miter;stroke-opacity:1"
       d="m 154.3281,121.01802 -11.03502,12.90033 -2.15715,-9.11565 -9.82738,-0.18899 -6.99256,5.48066 6.61458,3.77976 3.96875,-0.56696 -7.74851,3.40178 -4.91369,-3.21279 -3.96875,4.91369 -2.07887,6.99256 7.18155,0.75595 5.48065,-4.53572 4.72471,4.53572 1.32291,-2.64584 9.07143,3.59078 v 2.26786 l -2.60717,4.25338 -7.43931,-2.59997 -17.35679,-1.65341 5.56911,8.72587 -3.49161,6.53273 5.11748,4.96312 5.65621,4.72471 0.75595,13.41815 4.91369,9.4494 9.07143,-6.04762 4.53571,-10.01637 2.64584,-8.88244 6.04762,-7.9375 -8.69346,-0.56696 6.4256,-1.70089 7.37053,-4.34673 -6.61458,-4.15774 5.66964,1.32292 2.83482,-0.56696 c -0.75087,-11.57196 -3.27284,-23.44862 -10.05336,-33.26683 z"
       id="path886"
       inkscape:connector-curvature="0"
       sodipodi:nodetypes="ccccccccccccccccccccccccccccccccccccc"
       inkscape:export-xdpi="300"
       inkscape:export-ydpi="300" />
    <rect
       style="opacity:1;fill:#ffff00;fill-opacity:1;stroke:#000000;stroke-width:2.50300002;stroke-linecap:butt;stroke-miterlimit:4;stroke-dasharray:none;stroke-dashoffset:0;stroke-opacity:1"
       id="rect890"
       width="23.335745"
       height="16.140993"
       x="91.644226"
       y="163.12949"
       rx="2.5770581"
       ry="16.140993"
       inkscape:export-xdpi="300"
       inkscape:export-ydpi="300" />
    <path
       style="opacity:1;fill:#ffff01;fill-opacity:1;stroke:#000000;stroke-width:2.50900006;stroke-linecap:round;stroke-miterlimit:4;stroke-dasharray:none;stroke-dashoffset:0;stroke-opacity:1"
       id="path888"
       sodipodi:type="arc"
       sodipodi:cx="103.50784"
       sodipodi:cy="130.0473"
       sodipodi:rx="34.230141"
       sodipodi:ry="41.004856"
       sodipodi:start="1.9177735"
       sodipodi:end="1.2314144"
       d="M 91.867655,168.60847 A 34.230141,41.004856 0 0 1 69.802826,122.89238 34.230141,41.004856 0 0 1 103.63784,89.042742 34.230141,41.004856 0 0 1 137.25725,123.19925 34.230141,41.004856 0 0 1 114.90321,168.71327"
       sodipodi:open="true"
       inkscape:export-xdpi="300"
       inkscape:export-ydpi="300" />
    <rect
       ry="2.448"
       rx="1.271"
       y="179.73965"
       x="92.93454"
       height="5.4481883"
       width="20.567234"
       id="rect892"
       style="opacity:1;fill:#b9b9b9;fill-opacity:1;stroke:#000000;stroke-width:2.5;stroke-linecap:butt;stroke-miterlimit:4;stroke-dasharray:none;stroke-dashoffset:0;stroke-opacity:1"
       inkscape:export-xdpi="300"
       inkscape:export-ydpi="300" />
    <path
       style="opacity:1;fill:#b9b9b9;fill-opacity:1;stroke:#000000;stroke-width:2.52399993;stroke-linecap:butt;stroke-miterlimit:4;stroke-dasharray:none;stroke-dashoffset:0;stroke-opacity:1"
       id="path894"
       sodipodi:type="arc"
       sodipodi:cx="-206.91142"
       sodipodi:cy="46.693707"
       sodipodi:rx="9.0579138"
       sodipodi:ry="9.0579138"
       sodipodi:start="1.8683052"
       sodipodi:end="4.9884869"
       d="m -209.56665,55.353703 a 9.0579138,9.0579138 0 0 1 -6.0327,-11.222368 9.0579138,9.0579138 0 0 1 11.15715,-6.152487 l -2.46922,8.714859 z"
       transform="rotate(-106.4294)"
       inkscape:transform-center-x="41.693337"
       inkscape:transform-center-y="22.629277"
       inkscape:export-xdpi="300"
       inkscape:export-ydpi="300" />
    <path
       style="fill:none;stroke:#ffff00;stroke-width:3.56500006;stroke-linecap:round;stroke-linejoin:miter;stroke-miterlimit:4;stroke-dasharray:3.56500012, 3.56500012;stroke-dashoffset:10.16024876;stroke-opacity:1"
       d="M 102.89877,80.608802 V 59.103272"
       id="path914"
       inkscape:connector-curvature="0"
       inkscape:export-xdpi="300"
       inkscape:export-ydpi="300" />
    <path
       inkscape:connector-curvature="0"
       id="path916"
       d="m 122.70134,86.315852 10.94932,-19.96301"
       style="fill:none;stroke:#ffff00;stroke-width:3.5;stroke-linecap:round;stroke-linejoin:miter;stroke-miterlimit:4;stroke-dasharray:3.5000001, 3.5000001;stroke-dashoffset:9.15071297;stroke-opacity:1"
       inkscape:export-xdpi="300"
       inkscape:export-ydpi="300" />
    <path
       style="fill:none;stroke:#ffff00;stroke-width:3.5;stroke-linecap:round;stroke-linejoin:miter;stroke-miterlimit:4;stroke-dasharray:3.5, 3.5;stroke-dashoffset:9.15071297;stroke-opacity:1"
       d="m 136.48304,97.521602 17.2528,-14.85767"
       id="path920"
       inkscape:connector-curvature="0"
       inkscape:export-xdpi="300"
       inkscape:export-ydpi="300" />
    <path
       style="fill:none;stroke:#ffff00;stroke-width:3.5;stroke-linecap:round;stroke-linejoin:miter;stroke-miterlimit:4;stroke-dasharray:3.5000001, 3.5000001;stroke-dashoffset:9.15071297;stroke-opacity:1"
       d="M 82.850478,87.374192 71.901221,67.411182"
       id="path926"
       inkscape:connector-curvature="0"
       inkscape:export-xdpi="300"
       inkscape:export-ydpi="300" />
    <path
       inkscape:connector-curvature="0"
       id="path928"
       d="M 68.010522,98.579942 50.757821,83.722272"
       style="fill:none;stroke:#ffff00;stroke-width:3.5;stroke-linecap:round;stroke-linejoin:miter;stroke-miterlimit:4;stroke-dasharray:3.5000001, 3.5000001;stroke-dashoffset:9.15071297;stroke-opacity:1"
       inkscape:export-xdpi="300"
       inkscape:export-ydpi="300" />
    <g
       id="g838"
       transform="translate(7.4835468,57.574582)"
       inkscape:export-xdpi="300"
       inkscape:export-ydpi="300">
      <path
         style="fill:none;stroke:#000000;stroke-width:2.4000001;stroke-linecap:butt;stroke-linejoin:miter;stroke-miterlimit:4;stroke-dasharray:none;stroke-opacity:1"
         d="m 92.823692,98.638895 v -38.05062 c -0.329315,-3.508769 -4.046806,-3.769649 -6.076209,-2.025478 0,0 -1.274046,0.887694 -1.891513,2.626835 -0.43021,1.546311 -0.07244,7.248248 -0.07591,12.993025 0.316846,1.405334 0.758805,2.425818 3.754352,2.450248 2.990658,0.0244 6.781179,-0.0217 7.510831,-0.0175"
         id="path832"
         inkscape:connector-curvature="0"
         sodipodi:nodetypes="ccsccsc"
         inkscape:export-xdpi="300"
         inkscape:export-ydpi="300" />
      <path
         inkscape:export-ydpi="300"
         inkscape:export-xdpi="300"
         sodipodi:nodetypes="ccsccsc"
         inkscape:connector-curvature="0"
         id="path834"
         d="m 98.828509,98.638895 v -38.05062 c 0.329317,-3.508769 4.046821,-3.769649 6.076241,-2.025478 0,0 1.27405,0.887694 1.89152,2.626835 0.43021,1.546311 0.0724,7.248248 0.0759,12.993025 -0.31685,1.405334 -0.75881,2.425818 -3.75437,2.450248 -2.99068,0.0244 -6.781198,-0.0217 -7.51085,-0.0175"
         style="fill:none;stroke:#000000;stroke-width:2.4000001;stroke-linecap:butt;stroke-linejoin:miter;stroke-miterlimit:4;stroke-dasharray:none;stroke-opacity:1" />
    </g>
  </g>
</svg>
